<?xml version="1.0" encoding="UTF-8" ?>
<svg version="1.1" width="64" height="32" xmlns="http://www.w3.org/2000/svg" shape-rendering="crispEdges">
<rect x="42" y="15" width="1" height="1" fill="#2C2C2C" />
<rect x="43" y="15" width="1" height="1" fill="#2C2C2C" />
<rect x="44" y="15" width="1" height="1" fill="#2C2C2C" />
<rect x="45" y="15" width="1" height="1" fill="#2C2C2C" />
<rect x="46" y="15" width="1" height="1" fill="#2C2C2C" />
<rect x="47" y="15" width="1" height="1" fill="#2C2C2C" />
<rect x="48" y="15" width="1" height="1" fill="#2C2C2C" />
<rect x="49" y="15" width="1" height="1" fill="#2C2C2C" />
<rect x="50" y="15" width="1" height="1" fill="#2C2C2C" />
<rect x="51" y="15" width="1" height="1" fill="#2C2C2C" />
<rect x="52" y="15" width="1" height="1" fill="#2C2C2C" />
<rect x="10" y="16" width="1" height="1" fill="#2C2C2C" />
<rect x="11" y="16" width="1" height="1" fill="#2C2C2C" />
<rect x="12" y="16" width="1" height="1" fill="#2C2C2C" />
<rect x="13" y="16" width="1" height="1" fill="#2C2C2C" />
<rect x="14" y="16" width="1" height="1" fill="#2C2C2C" />
<rect x="15" y="16" width="1" height="1" fill="#2C2C2C" />
<rect x="16" y="16" width="1" height="1" fill="#2C2C2C" />
<rect x="17" y="16" width="1" height="1" fill="#2C2C2C" />
<rect x="18" y="16" width="1" height="1" fill="#2C2C2C" />
<rect x="19" y="16" width="1" height="1" fill="#2C2C2C" />
<rect x="20" y="16" width="1" height="1" fill="#2C2C2C" />
<rect x="40" y="16" width="1" height="1" fill="#2C2C2C" />
<rect x="41" y="16" width="1" height="1" fill="#2C2C2C" />
<rect x="42" y="16" width="1" height="1" fill="#CACACA" />
<rect x="43" y="16" width="1" height="1" fill="#E5E5E5" />
<rect x="44" y="16" width="1" height="1" fill="#E5E5E5" />
<rect x="45" y="16" width="1" height="1" fill="#FFFFFF" />
<rect x="46" y="16" width="1" height="1" fill="#FFFFFF" />
<rect x="47" y="16" width="1" height="1" fill="#E5E5E5" />
<rect x="48" y="16" width="1" height="1" fill="#E5E5E5" />
<rect x="49" y="16" width="1" height="1" fill="#E5E5E5" />
<rect x="50" y="16" width="1" height="1" fill="#E5E5E5" />
<rect x="51" y="16" width="1" height="1" fill="#FFFFFF" />
<rect x="52" y="16" width="1" height="1" fill="#E5E5E5" />
<rect x="53" y="16" width="1" height="1" fill="#2C2C2C" />
<rect x="8" y="17" width="1" height="1" fill="#2C2C2C" />
<rect x="9" y="17" width="1" height="1" fill="#2C2C2C" />
<rect x="10" y="17" width="1" height="1" fill="#CACACA" />
<rect x="11" y="17" width="1" height="1" fill="#E5E5E5" />
<rect x="12" y="17" width="1" height="1" fill="#E5E5E5" />
<rect x="13" y="17" width="1" height="1" fill="#FFFFFF" />
<rect x="14" y="17" width="1" height="1" fill="#FFFFFF" />
<rect x="15" y="17" width="1" height="1" fill="#E5E5E5" />
<rect x="16" y="17" width="1" height="1" fill="#E5E5E5" />
<rect x="17" y="17" width="1" height="1" fill="#E5E5E5" />
<rect x="18" y="17" width="1" height="1" fill="#E5E5E5" />
<rect x="19" y="17" width="1" height="1" fill="#FFFFFF" />
<rect x="20" y="17" width="1" height="1" fill="#E5E5E5" />
<rect x="21" y="17" width="1" height="1" fill="#2C2C2C" />
<rect x="39" y="17" width="1" height="1" fill="#2C2C2C" />
<rect x="40" y="17" width="1" height="1" fill="#FFFFFF" />
<rect x="41" y="17" width="1" height="1" fill="#FFFFFF" />
<rect x="42" y="17" width="1" height="1" fill="#FFFFFF" />
<rect x="43" y="17" width="1" height="1" fill="#FFFFFF" />
<rect x="44" y="17" width="1" height="1" fill="#FFFFFF" />
<rect x="45" y="17" width="1" height="1" fill="#FFFFFF" />
<rect x="46" y="17" width="1" height="1" fill="#FFFFFF" />
<rect x="47" y="17" width="1" height="1" fill="#FFFFFF" />
<rect x="48" y="17" width="1" height="1" fill="#FFFFFF" />
<rect x="49" y="17" width="1" height="1" fill="#FFFFFF" />
<rect x="50" y="17" width="1" height="1" fill="#FFFFFF" />
<rect x="51" y="17" width="1" height="1" fill="#FFFFFF" />
<rect x="52" y="17" width="1" height="1" fill="#FFFFFF" />
<rect x="53" y="17" width="1" height="1" fill="#FFFFFF" />
<rect x="54" y="17" width="1" height="1" fill="#FFFFFF" />
<rect x="55" y="17" width="1" height="1" fill="#2C2C2C" />
<rect x="7" y="18" width="1" height="1" fill="#2C2C2C" />
<rect x="8" y="18" width="1" height="1" fill="#FFFFFF" />
<rect x="9" y="18" width="1" height="1" fill="#FFFFFF" />
<rect x="10" y="18" width="1" height="1" fill="#FFFFFF" />
<rect x="11" y="18" width="1" height="1" fill="#FFFFFF" />
<rect x="12" y="18" width="1" height="1" fill="#FFFFFF" />
<rect x="13" y="18" width="1" height="1" fill="#FFFFFF" />
<rect x="14" y="18" width="1" height="1" fill="#FFFFFF" />
<rect x="15" y="18" width="1" height="1" fill="#FFFFFF" />
<rect x="16" y="18" width="1" height="1" fill="#FFFFFF" />
<rect x="17" y="18" width="1" height="1" fill="#FFFFFF" />
<rect x="18" y="18" width="1" height="1" fill="#FFFFFF" />
<rect x="19" y="18" width="1" height="1" fill="#FFFFFF" />
<rect x="20" y="18" width="1" height="1" fill="#FFFFFF" />
<rect x="21" y="18" width="1" height="1" fill="#FFFFFF" />
<rect x="22" y="18" width="1" height="1" fill="#FFFFFF" />
<rect x="23" y="18" width="1" height="1" fill="#2C2C2C" />
<rect x="39" y="18" width="1" height="1" fill="#2C2C2C" />
<rect x="40" y="18" width="1" height="1" fill="#FFFFFF" />
<rect x="41" y="18" width="1" height="1" fill="#FFFFFF" />
<rect x="42" y="18" width="1" height="1" fill="#FFFFFF" />
<rect x="43" y="18" width="1" height="1" fill="#FFFFFF" />
<rect x="44" y="18" width="1" height="1" fill="#FFFFFF" />
<rect x="45" y="18" width="1" height="1" fill="#FFFFFF" />
<rect x="46" y="18" width="1" height="1" fill="#FFFFFF" />
<rect x="47" y="18" width="1" height="1" fill="#FFFFFF" />
<rect x="48" y="18" width="1" height="1" fill="#FFFFFF" />
<rect x="49" y="18" width="1" height="1" fill="#FFFFFF" />
<rect x="50" y="18" width="1" height="1" fill="#2C2C2C" />
<rect x="51" y="18" width="1" height="1" fill="#2C2C2C" />
<rect x="52" y="18" width="1" height="1" fill="#FFFFFF" />
<rect x="53" y="18" width="1" height="1" fill="#FFFFFF" />
<rect x="54" y="18" width="1" height="1" fill="#FFFFFF" />
<rect x="55" y="18" width="1" height="1" fill="#FFFFFF" />
<rect x="56" y="18" width="1" height="1" fill="#2C2C2C" />
<rect x="7" y="19" width="1" height="1" fill="#2C2C2C" />
<rect x="8" y="19" width="1" height="1" fill="#FFFFFF" />
<rect x="9" y="19" width="1" height="1" fill="#FFFFFF" />
<rect x="10" y="19" width="1" height="1" fill="#FFFFFF" />
<rect x="11" y="19" width="1" height="1" fill="#FFFFFF" />
<rect x="12" y="19" width="1" height="1" fill="#FFFFFF" />
<rect x="13" y="19" width="1" height="1" fill="#FFFFFF" />
<rect x="14" y="19" width="1" height="1" fill="#FFFFFF" />
<rect x="15" y="19" width="1" height="1" fill="#FFFFFF" />
<rect x="16" y="19" width="1" height="1" fill="#FFFFFF" />
<rect x="17" y="19" width="1" height="1" fill="#FFFFFF" />
<rect x="18" y="19" width="1" height="1" fill="#2C2C2C" />
<rect x="19" y="19" width="1" height="1" fill="#2C2C2C" />
<rect x="20" y="19" width="1" height="1" fill="#FFFFFF" />
<rect x="21" y="19" width="1" height="1" fill="#FFFFFF" />
<rect x="22" y="19" width="1" height="1" fill="#FFFFFF" />
<rect x="23" y="19" width="1" height="1" fill="#FFFFFF" />
<rect x="24" y="19" width="1" height="1" fill="#2C2C2C" />
<rect x="40" y="19" width="1" height="1" fill="#2C2C2C" />
<rect x="41" y="19" width="1" height="1" fill="#2C2C2C" />
<rect x="42" y="19" width="1" height="1" fill="#2C2C2C" />
<rect x="43" y="19" width="1" height="1" fill="#2C2C2C" />
<rect x="44" y="19" width="1" height="1" fill="#2C2C2C" />
<rect x="45" y="19" width="1" height="1" fill="#2C2C2C" />
<rect x="46" y="19" width="1" height="1" fill="#2C2C2C" />
<rect x="47" y="19" width="1" height="1" fill="#2C2C2C" />
<rect x="48" y="19" width="1" height="1" fill="#2C2C2C" />
<rect x="49" y="19" width="1" height="1" fill="#2C2C2C" />
<rect x="50" y="19" width="1" height="1" fill="#FFFFFF" />
<rect x="51" y="19" width="1" height="1" fill="#FFFFFF" />
<rect x="52" y="19" width="1" height="1" fill="#FFFFFF" />
<rect x="53" y="19" width="1" height="1" fill="#FFFFFF" />
<rect x="54" y="19" width="1" height="1" fill="#FFFFFF" />
<rect x="55" y="19" width="1" height="1" fill="#FFFFFF" />
<rect x="56" y="19" width="1" height="1" fill="#2C2C2C" />
<rect x="8" y="20" width="1" height="1" fill="#2C2C2C" />
<rect x="9" y="20" width="1" height="1" fill="#2C2C2C" />
<rect x="10" y="20" width="1" height="1" fill="#2C2C2C" />
<rect x="11" y="20" width="1" height="1" fill="#2C2C2C" />
<rect x="12" y="20" width="1" height="1" fill="#2C2C2C" />
<rect x="13" y="20" width="1" height="1" fill="#2C2C2C" />
<rect x="14" y="20" width="1" height="1" fill="#2C2C2C" />
<rect x="15" y="20" width="1" height="1" fill="#2C2C2C" />
<rect x="16" y="20" width="1" height="1" fill="#2C2C2C" />
<rect x="17" y="20" width="1" height="1" fill="#2C2C2C" />
<rect x="18" y="20" width="1" height="1" fill="#FFFFFF" />
<rect x="19" y="20" width="1" height="1" fill="#FFFFFF" />
<rect x="20" y="20" width="1" height="1" fill="#FFFFFF" />
<rect x="21" y="20" width="1" height="1" fill="#FFFFFF" />
<rect x="22" y="20" width="1" height="1" fill="#FFFFFF" />
<rect x="23" y="20" width="1" height="1" fill="#FFFFFF" />
<rect x="24" y="20" width="1" height="1" fill="#2C2C2C" />
<rect x="40" y="20" width="1" height="1" fill="#2C2C2C" />
<rect x="41" y="20" width="1" height="1" fill="#E5E5E5" />
<rect x="42" y="20" width="1" height="1" fill="#FFFFFF" />
<rect x="43" y="20" width="1" height="1" fill="#FFFFFF" />
<rect x="44" y="20" width="1" height="1" fill="#FFFFFF" />
<rect x="45" y="20" width="1" height="1" fill="#FFFFFF" />
<rect x="46" y="20" width="1" height="1" fill="#FFFFFF" />
<rect x="47" y="20" width="1" height="1" fill="#FFFFFF" />
<rect x="48" y="20" width="1" height="1" fill="#FFFFFF" />
<rect x="49" y="20" width="1" height="1" fill="#2C2C2C" />
<rect x="50" y="20" width="1" height="1" fill="#E5E5E5" />
<rect x="51" y="20" width="1" height="1" fill="#FFFFFF" />
<rect x="52" y="20" width="1" height="1" fill="#FFFFFF" />
<rect x="53" y="20" width="1" height="1" fill="#FFFFFF" />
<rect x="54" y="20" width="1" height="1" fill="#E5E5E5" />
<rect x="55" y="20" width="1" height="1" fill="#FFFFFF" />
<rect x="56" y="20" width="1" height="1" fill="#2C2C2C" />
<rect x="8" y="21" width="1" height="1" fill="#2C2C2C" />
<rect x="9" y="21" width="1" height="1" fill="#E5E5E5" />
<rect x="10" y="21" width="1" height="1" fill="#FFFFFF" />
<rect x="11" y="21" width="1" height="1" fill="#FFFFFF" />
<rect x="12" y="21" width="1" height="1" fill="#FFFFFF" />
<rect x="13" y="21" width="1" height="1" fill="#FFFFFF" />
<rect x="14" y="21" width="1" height="1" fill="#FFFFFF" />
<rect x="15" y="21" width="1" height="1" fill="#FFFFFF" />
<rect x="16" y="21" width="1" height="1" fill="#FFFFFF" />
<rect x="17" y="21" width="1" height="1" fill="#2C2C2C" />
<rect x="18" y="21" width="1" height="1" fill="#E5E5E5" />
<rect x="19" y="21" width="1" height="1" fill="#FFFFFF" />
<rect x="20" y="21" width="1" height="1" fill="#FFFFFF" />
<rect x="21" y="21" width="1" height="1" fill="#FFFFFF" />
<rect x="22" y="21" width="1" height="1" fill="#E5E5E5" />
<rect x="23" y="21" width="1" height="1" fill="#FFFFFF" />
<rect x="24" y="21" width="1" height="1" fill="#2C2C2C" />
<rect x="41" y="21" width="1" height="1" fill="#2C2C2C" />
<rect x="42" y="21" width="1" height="1" fill="#FFFFFF" />
<rect x="43" y="21" width="1" height="1" fill="#FFFFFF" />
<rect x="44" y="21" width="1" height="1" fill="#FFFFFF" />
<rect x="45" y="21" width="1" height="1" fill="#FFFFFF" />
<rect x="46" y="21" width="1" height="1" fill="#FFFFFF" />
<rect x="47" y="21" width="1" height="1" fill="#FFFFFF" />
<rect x="48" y="21" width="1" height="1" fill="#FFFFFF" />
<rect x="49" y="21" width="1" height="1" fill="#FFFFFF" />
<rect x="50" y="21" width="1" height="1" fill="#FFFFFF" />
<rect x="51" y="21" width="1" height="1" fill="#FFFFFF" />
<rect x="52" y="21" width="1" height="1" fill="#FFFFFF" />
<rect x="53" y="21" width="1" height="1" fill="#E5E5E5" />
<rect x="54" y="21" width="1" height="1" fill="#2C2C2C" />
<rect x="55" y="21" width="1" height="1" fill="#FFFFFF" />
<rect x="56" y="21" width="1" height="1" fill="#2C2C2C" />
<rect x="9" y="22" width="1" height="1" fill="#2C2C2C" />
<rect x="10" y="22" width="1" height="1" fill="#FFFFFF" />
<rect x="11" y="22" width="1" height="1" fill="#FFFFFF" />
<rect x="12" y="22" width="1" height="1" fill="#FFFFFF" />
<rect x="13" y="22" width="1" height="1" fill="#FFFFFF" />
<rect x="14" y="22" width="1" height="1" fill="#FFFFFF" />
<rect x="15" y="22" width="1" height="1" fill="#FFFFFF" />
<rect x="16" y="22" width="1" height="1" fill="#FFFFFF" />
<rect x="17" y="22" width="1" height="1" fill="#FFFFFF" />
<rect x="18" y="22" width="1" height="1" fill="#FFFFFF" />
<rect x="19" y="22" width="1" height="1" fill="#FFFFFF" />
<rect x="20" y="22" width="1" height="1" fill="#FFFFFF" />
<rect x="21" y="22" width="1" height="1" fill="#E5E5E5" />
<rect x="22" y="22" width="1" height="1" fill="#2C2C2C" />
<rect x="23" y="22" width="1" height="1" fill="#FFFFFF" />
<rect x="24" y="22" width="1" height="1" fill="#2C2C2C" />
<rect x="41" y="22" width="1" height="1" fill="#2C2C2C" />
<rect x="42" y="22" width="1" height="1" fill="#FFFFFF" />
<rect x="43" y="22" width="1" height="1" fill="#FFFFFF" />
<rect x="44" y="22" width="1" height="1" fill="#FFFFFF" />
<rect x="45" y="22" width="1" height="1" fill="#FFFFFF" />
<rect x="46" y="22" width="1" height="1" fill="#FFFFFF" />
<rect x="47" y="22" width="1" height="1" fill="#FFFFFF" />
<rect x="48" y="22" width="1" height="1" fill="#FFFFFF" />
<rect x="49" y="22" width="1" height="1" fill="#FFFFFF" />
<rect x="50" y="22" width="1" height="1" fill="#FFFFFF" />
<rect x="51" y="22" width="1" height="1" fill="#FFFFFF" />
<rect x="52" y="22" width="1" height="1" fill="#FFFFFF" />
<rect x="53" y="22" width="1" height="1" fill="#CACACA" />
<rect x="54" y="22" width="1" height="1" fill="#2C2C2C" />
<rect x="55" y="22" width="1" height="1" fill="#FFFFFF" />
<rect x="56" y="22" width="1" height="1" fill="#2C2C2C" />
<rect x="9" y="23" width="1" height="1" fill="#2C2C2C" />
<rect x="10" y="23" width="1" height="1" fill="#FFFFFF" />
<rect x="11" y="23" width="1" height="1" fill="#FFFFFF" />
<rect x="12" y="23" width="1" height="1" fill="#FFFFFF" />
<rect x="13" y="23" width="1" height="1" fill="#FFFFFF" />
<rect x="14" y="23" width="1" height="1" fill="#FFFFFF" />
<rect x="15" y="23" width="1" height="1" fill="#FFFFFF" />
<rect x="16" y="23" width="1" height="1" fill="#FFFFFF" />
<rect x="17" y="23" width="1" height="1" fill="#FFFFFF" />
<rect x="18" y="23" width="1" height="1" fill="#FFFFFF" />
<rect x="19" y="23" width="1" height="1" fill="#FFFFFF" />
<rect x="20" y="23" width="1" height="1" fill="#FFFFFF" />
<rect x="21" y="23" width="1" height="1" fill="#CACACA" />
<rect x="22" y="23" width="1" height="1" fill="#2C2C2C" />
<rect x="23" y="23" width="1" height="1" fill="#FFFFFF" />
<rect x="24" y="23" width="1" height="1" fill="#2C2C2C" />
<rect x="41" y="23" width="1" height="1" fill="#2C2C2C" />
<rect x="42" y="23" width="1" height="1" fill="#FFFFFF" />
<rect x="43" y="23" width="1" height="1" fill="#FFFFFF" />
<rect x="44" y="23" width="1" height="1" fill="#FFFFFF" />
<rect x="45" y="23" width="1" height="1" fill="#FFFFFF" />
<rect x="46" y="23" width="1" height="1" fill="#FFFFFF" />
<rect x="47" y="23" width="1" height="1" fill="#FFFFFF" />
<rect x="48" y="23" width="1" height="1" fill="#FFFFFF" />
<rect x="49" y="23" width="1" height="1" fill="#FFFFFF" />
<rect x="50" y="23" width="1" height="1" fill="#FFFFFF" />
<rect x="51" y="23" width="1" height="1" fill="#FFFFFF" />
<rect x="52" y="23" width="1" height="1" fill="#E5E5E5" />
<rect x="53" y="23" width="1" height="1" fill="#CACACA" />
<rect x="54" y="23" width="1" height="1" fill="#2C2C2C" />
<rect x="55" y="23" width="1" height="1" fill="#FFFFFF" />
<rect x="56" y="23" width="1" height="1" fill="#2C2C2C" />
<rect x="9" y="24" width="1" height="1" fill="#2C2C2C" />
<rect x="10" y="24" width="1" height="1" fill="#FFFFFF" />
<rect x="11" y="24" width="1" height="1" fill="#FFFFFF" />
<rect x="12" y="24" width="1" height="1" fill="#FFFFFF" />
<rect x="13" y="24" width="1" height="1" fill="#FFFFFF" />
<rect x="14" y="24" width="1" height="1" fill="#FFFFFF" />
<rect x="15" y="24" width="1" height="1" fill="#FFFFFF" />
<rect x="16" y="24" width="1" height="1" fill="#FFFFFF" />
<rect x="17" y="24" width="1" height="1" fill="#FFFFFF" />
<rect x="18" y="24" width="1" height="1" fill="#FFFFFF" />
<rect x="19" y="24" width="1" height="1" fill="#FFFFFF" />
<rect x="20" y="24" width="1" height="1" fill="#E5E5E5" />
<rect x="21" y="24" width="1" height="1" fill="#CACACA" />
<rect x="22" y="24" width="1" height="1" fill="#2C2C2C" />
<rect x="23" y="24" width="1" height="1" fill="#FFFFFF" />
<rect x="24" y="24" width="1" height="1" fill="#2C2C2C" />
<rect x="41" y="24" width="1" height="1" fill="#2C2C2C" />
<rect x="42" y="24" width="1" height="1" fill="#E5E5E5" />
<rect x="43" y="24" width="1" height="1" fill="#FFFFFF" />
<rect x="44" y="24" width="1" height="1" fill="#FFFFFF" />
<rect x="45" y="24" width="1" height="1" fill="#FFFFFF" />
<rect x="46" y="24" width="1" height="1" fill="#FFFFFF" />
<rect x="47" y="24" width="1" height="1" fill="#FFFFFF" />
<rect x="48" y="24" width="1" height="1" fill="#E5E5E5" />
<rect x="49" y="24" width="1" height="1" fill="#E5E5E5" />
<rect x="50" y="24" width="1" height="1" fill="#E5E5E5" />
<rect x="51" y="24" width="1" height="1" fill="#CACACA" />
<rect x="52" y="24" width="1" height="1" fill="#CACACA" />
<rect x="53" y="24" width="1" height="1" fill="#CACACA" />
<rect x="54" y="24" width="1" height="1" fill="#2C2C2C" />
<rect x="55" y="24" width="1" height="1" fill="#FFFFFF" />
<rect x="56" y="24" width="1" height="1" fill="#2C2C2C" />
<rect x="9" y="25" width="1" height="1" fill="#2C2C2C" />
<rect x="10" y="25" width="1" height="1" fill="#E5E5E5" />
<rect x="11" y="25" width="1" height="1" fill="#FFFFFF" />
<rect x="12" y="25" width="1" height="1" fill="#FFFFFF" />
<rect x="13" y="25" width="1" height="1" fill="#FFFFFF" />
<rect x="14" y="25" width="1" height="1" fill="#FFFFFF" />
<rect x="15" y="25" width="1" height="1" fill="#FFFFFF" />
<rect x="16" y="25" width="1" height="1" fill="#E5E5E5" />
<rect x="17" y="25" width="1" height="1" fill="#CACACA" />
<rect x="18" y="25" width="1" height="1" fill="#CACACA" />
<rect x="19" y="25" width="1" height="1" fill="#CACACA" />
<rect x="20" y="25" width="1" height="1" fill="#CACACA" />
<rect x="21" y="25" width="1" height="1" fill="#CACACA" />
<rect x="22" y="25" width="1" height="1" fill="#2C2C2C" />
<rect x="23" y="25" width="1" height="1" fill="#FFFFFF" />
<rect x="24" y="25" width="1" height="1" fill="#2C2C2C" />
<rect x="42" y="25" width="1" height="1" fill="#2C2C2C" />
<rect x="43" y="25" width="1" height="1" fill="#2C2C2C" />
<rect x="44" y="25" width="1" height="1" fill="#2C2C2C" />
<rect x="45" y="25" width="1" height="1" fill="#2C2C2C" />
<rect x="46" y="25" width="1" height="1" fill="#2C2C2C" />
<rect x="47" y="25" width="1" height="1" fill="#2C2C2C" />
<rect x="48" y="25" width="1" height="1" fill="#2C2C2C" />
<rect x="49" y="25" width="1" height="1" fill="#2C2C2C" />
<rect x="50" y="25" width="1" height="1" fill="#2C2C2C" />
<rect x="51" y="25" width="1" height="1" fill="#2C2C2C" />
<rect x="52" y="25" width="1" height="1" fill="#FFFFFF" />
<rect x="53" y="25" width="1" height="1" fill="#2C2C2C" />
<rect x="54" y="25" width="1" height="1" fill="#2C2C2C" />
<rect x="55" y="25" width="1" height="1" fill="#FFFFFF" />
<rect x="56" y="25" width="1" height="1" fill="#2C2C2C" />
<rect x="10" y="26" width="1" height="1" fill="#2C2C2C" />
<rect x="11" y="26" width="1" height="1" fill="#2C2C2C" />
<rect x="12" y="26" width="1" height="1" fill="#2C2C2C" />
<rect x="13" y="26" width="1" height="1" fill="#2C2C2C" />
<rect x="14" y="26" width="1" height="1" fill="#2C2C2C" />
<rect x="15" y="26" width="1" height="1" fill="#2C2C2C" />
<rect x="16" y="26" width="1" height="1" fill="#2C2C2C" />
<rect x="17" y="26" width="1" height="1" fill="#2C2C2C" />
<rect x="18" y="26" width="1" height="1" fill="#CACACA" />
<rect x="19" y="26" width="1" height="1" fill="#2C2C2C" />
<rect x="20" y="26" width="1" height="1" fill="#2C2C2C" />
<rect x="21" y="26" width="1" height="1" fill="#2C2C2C" />
<rect x="22" y="26" width="1" height="1" fill="#2C2C2C" />
<rect x="23" y="26" width="1" height="1" fill="#FFFFFF" />
<rect x="24" y="26" width="1" height="1" fill="#2C2C2C" />
<rect x="43" y="26" width="1" height="1" fill="#2C2C2C" />
<rect x="44" y="26" width="1" height="1" fill="#FFFFFF" />
<rect x="45" y="26" width="1" height="1" fill="#2C2C2C" />
<rect x="51" y="26" width="1" height="1" fill="#2C2C2C" />
<rect x="52" y="26" width="1" height="1" fill="#FFFFFF" />
<rect x="53" y="26" width="1" height="1" fill="#2C2C2C" />
<rect x="55" y="26" width="1" height="1" fill="#2C2C2C" />
<rect x="11" y="27" width="1" height="1" fill="#2C2C2C" />
<rect x="12" y="27" width="1" height="1" fill="#2C2C2C" />
<rect x="13" y="27" width="1" height="1" fill="#2C2C2C" />
<rect x="14" y="27" width="1" height="1" fill="#CACACA" />
<rect x="15" y="27" width="1" height="1" fill="#2C2C2C" />
<rect x="16" y="27" width="1" height="1" fill="#2C2C2C" />
<rect x="17" y="27" width="1" height="1" fill="#CACACA" />
<rect x="18" y="27" width="1" height="1" fill="#FFFFFF" />
<rect x="19" y="27" width="1" height="1" fill="#2C2C2C" />
<rect x="23" y="27" width="1" height="1" fill="#2C2C2C" />
<rect x="41" y="27" width="1" height="1" fill="#2C2C2C" />
<rect x="42" y="27" width="1" height="1" fill="#2C2C2C" />
<rect x="43" y="27" width="1" height="1" fill="#CACACA" />
<rect x="44" y="27" width="1" height="1" fill="#FFFFFF" />
<rect x="45" y="27" width="1" height="1" fill="#2C2C2C" />
<rect x="49" y="27" width="1" height="1" fill="#2C2C2C" />
<rect x="50" y="27" width="1" height="1" fill="#2C2C2C" />
<rect x="51" y="27" width="1" height="1" fill="#CACACA" />
<rect x="52" y="27" width="1" height="1" fill="#FFFFFF" />
<rect x="53" y="27" width="1" height="1" fill="#2C2C2C" />
<rect x="12" y="28" width="1" height="1" fill="#2C2C2C" />
<rect x="13" y="28" width="1" height="1" fill="#2C2C2C" />
<rect x="14" y="28" width="1" height="1" fill="#2C2C2C" />
<rect x="15" y="28" width="1" height="1" fill="#2C2C2C" />
<rect x="16" y="28" width="1" height="1" fill="#2C2C2C" />
<rect x="17" y="28" width="1" height="1" fill="#2C2C2C" />
<rect x="18" y="28" width="1" height="1" fill="#2C2C2C" />
<rect x="41" y="28" width="1" height="1" fill="#2C2C2C" />
<rect x="42" y="28" width="1" height="1" fill="#2C2C2C" />
<rect x="43" y="28" width="1" height="1" fill="#2C2C2C" />
<rect x="44" y="28" width="1" height="1" fill="#2C2C2C" />
<rect x="49" y="28" width="1" height="1" fill="#2C2C2C" />
<rect x="50" y="28" width="1" height="1" fill="#2C2C2C" />
<rect x="51" y="28" width="1" height="1" fill="#2C2C2C" />
<rect x="52" y="28" width="1" height="1" fill="#2C2C2C" />
</svg>